<svg width="188" height="189" viewBox="0 0 188 189" fill="none" xmlns="http://www.w3.org/2000/svg">
<rect x="-0.5" y="0.5" width="188" height="188" fill="#EDEEF3" stroke="white"/>
<mask id="mask0_1_41" style="mask-type:alpha" maskUnits="userSpaceOnUse" x="80" y="81" width="28" height="28">
<rect x="80" y="81" width="27.8203" height="27.8203" fill="#D9D9D9"/>
</mask>
<g mask="url(#mask0_1_41)">
<path d="M85.7978 106.502C84.8318 106.502 84.0107 106.164 83.3345 105.487C82.6583 104.811 82.3203 103.99 82.3203 103.024V86.7956C82.3203 85.8296 82.6583 85.0086 83.3345 84.3324C84.0107 83.6562 84.8318 83.3181 85.7978 83.3181H102.026C102.992 83.3181 103.813 83.6562 104.49 84.3324C105.166 85.0086 105.504 85.8296 105.504 86.7956V103.024C105.504 103.99 105.166 104.811 104.49 105.487C103.813 106.164 102.992 106.502 102.026 106.502H85.7978ZM85.7978 104.183H102.026C102.355 104.183 102.63 104.072 102.852 103.849C103.074 103.628 103.185 103.353 103.185 103.024V86.7956C103.185 86.4672 103.074 86.1917 102.852 85.9691C102.63 85.7473 102.355 85.6364 102.026 85.6364H85.7978C85.4694 85.6364 85.1939 85.7473 84.9713 85.9691C84.7495 86.1917 84.6386 86.4672 84.6386 86.7956V103.024C84.6386 103.353 84.7495 103.628 84.9713 103.849C85.1939 104.072 85.4694 104.183 85.7978 104.183ZM86.957 101.865L91.5937 97.2282L93.6802 99.2858L96.2304 96.0691L100.867 101.865H86.957ZM89.2753 92.5915C88.6378 92.5915 88.0922 92.3643 87.6386 91.9099C87.1842 91.4563 86.957 90.9107 86.957 90.2732C86.957 89.6356 87.1842 89.09 87.6386 88.6364C88.0922 88.182 88.6378 87.9548 89.2753 87.9548C89.9129 87.9548 90.4589 88.182 90.9133 88.6364C91.3669 89.09 91.5937 89.6356 91.5937 90.2732C91.5937 90.9107 91.3669 91.4563 90.9133 91.9099C90.4589 92.3643 89.9129 92.5915 89.2753 92.5915Z" fill="#5A6B87"/>
</g>
</svg>
