<svg width="188" height="189" viewBox="0 0 188 189" fill="none" xmlns="http://www.w3.org/2000/svg">
<rect x="0.5" y="0.5" width="188" height="188" fill="#EDEEF3" stroke="white"/>
<mask id="mask0_1_80" style="mask-type:alpha" maskUnits="userSpaceOnUse" x="81" y="81" width="28" height="28">
<rect x="81" y="81" width="27.8203" height="27.8203" fill="#D9D9D9"/>
</mask>
<g mask="url(#mask0_1_80)">
<path d="M86.7978 106.502C85.8318 106.502 85.0107 106.164 84.3345 105.487C83.6583 104.811 83.3202 103.99 83.3202 103.024V86.7956C83.3202 85.8297 83.6583 85.0086 84.3345 84.3324C85.0107 83.6562 85.8318 83.3181 86.7978 83.3181H103.026C103.992 83.3181 104.813 83.6562 105.49 84.3324C106.166 85.0086 106.504 85.8297 106.504 86.7956V103.024C106.504 103.99 106.166 104.811 105.49 105.487C104.813 106.164 103.992 106.502 103.026 106.502H86.7978ZM86.7978 104.183H103.026C103.355 104.183 103.63 104.072 103.852 103.849C104.074 103.628 104.185 103.353 104.185 103.024V86.7956C104.185 86.4672 104.074 86.1917 103.852 85.9691C103.63 85.7474 103.355 85.6365 103.026 85.6365H86.7978C86.4694 85.6365 86.1939 85.7474 85.9713 85.9691C85.7495 86.1917 85.6386 86.4672 85.6386 86.7956V103.024C85.6386 103.353 85.7495 103.628 85.9713 103.849C86.1939 104.072 86.4694 104.183 86.7978 104.183ZM87.957 101.865L92.5937 97.2283L94.6802 99.2858L97.2304 96.0691L101.867 101.865H87.957ZM90.2753 92.5915C89.6378 92.5915 89.0922 92.3643 88.6386 91.9099C88.1842 91.4563 87.957 90.9107 87.957 90.2732C87.957 89.6356 88.1842 89.09 88.6386 88.6364C89.0922 88.182 89.6378 87.9548 90.2753 87.9548C90.9129 87.9548 91.4588 88.182 91.9132 88.6364C92.3669 89.09 92.5937 89.6356 92.5937 90.2732C92.5937 90.9107 92.3669 91.4563 91.9132 91.9099C91.4588 92.3643 90.9129 92.5915 90.2753 92.5915Z" fill="#5A6B87"/>
</g>
</svg>
